<?xml version="1.0" encoding="UTF-8" standalone="no"?>
<!-- Created with Inkscape (http://www.inkscape.org/) -->

<svg
   xmlns:dc="http://purl.org/dc/elements/1.1/"
   xmlns:cc="http://creativecommons.org/ns#"
   xmlns:rdf="http://www.w3.org/1999/02/22-rdf-syntax-ns#"
   xmlns:svg="http://www.w3.org/2000/svg"
   xmlns="http://www.w3.org/2000/svg"
   xmlns:sodipodi="http://sodipodi.sourceforge.net/DTD/sodipodi-0.dtd"
   xmlns:inkscape="http://www.inkscape.org/namespaces/inkscape"
   width="16"
   height="16"
   id="svg2"
   version="1.1"
   inkscape:version="0.48.3.1 r9886"
   sodipodi:docname="favicon.svg"
   inkscape:export-filename="/home/pradip/github/myblog/static/img/favicon.png"
   inkscape:export-xdpi="95.498436"
   inkscape:export-ydpi="95.498436">
  <defs
     id="defs4" />
  <sodipodi:namedview
     id="base"
     pagecolor="#ffffff"
     bordercolor="#666666"
     borderopacity="1.0"
     inkscape:pageopacity="0.0"
     inkscape:pageshadow="2"
     inkscape:zoom="15.839192"
     inkscape:cx="17.257513"
     inkscape:cy="5.6025725"
     inkscape:document-units="px"
     inkscape:current-layer="layer1"
     showgrid="true"
     inkscape:window-width="1366"
     inkscape:window-height="713"
     inkscape:window-x="0"
     inkscape:window-y="28"
     inkscape:window-maximized="1">
    <inkscape:grid
       type="xygrid"
       id="grid2985"
       empspacing="5"
       visible="true"
       enabled="true"
       snapvisiblegridlinesonly="true" />
  </sodipodi:namedview>
  <metadata
     id="metadata7">
    <rdf:RDF>
      <cc:Work
         rdf:about="">
        <dc:format>image/svg+xml</dc:format>
        <dc:type
           rdf:resource="http://purl.org/dc/dcmitype/StillImage" />
        <dc:title></dc:title>
      </cc:Work>
    </rdf:RDF>
  </metadata>
  <g
     inkscape:label="Layer 1"
     inkscape:groupmode="layer"
     id="layer1"
     transform="translate(0,-1036.3622)">
    <path
       style="fill:#224079;fill-opacity:1;fill-rule:nonzero;stroke:none"
       id="path4154"
       d="M 6.6106995,0.97290328 C 6.5826587,0.99626926 6.5510046,1.0158802 6.526577,1.0430012 6.446046,1.1324119 6.3491705,1.2895077 6.2901951,1.387523 6.1067276,1.6924401 5.9623758,2.0055544 5.8223022,2.3323111 5.4040176,3.3029934 5.2040563,4.3432699 5.0448314,5.3822482 4.9347545,6.2176275 4.9664322,7.0703858 5.2476056,7.8708974 c 0.047554,0.1353884 0.109371,0.2653369 0.1640565,0.3980053 0.2986615,0.5981417 0.6829321,1.052043 1.2833867,1.3608803 0.1030206,0.052988 0.2128758,0.091475 0.3193136,0.1372122 0.4491594,0.1603393 0.9100616,0.232598 1.382126,0.1376702 C 8.6814235,9.8473677 8.8459585,9.7725304 9.117577,9.6701787 9.2352761,9.6132147 9.3557856,9.5617251 9.4706744,9.4992867 9.5873808,9.4358605 9.9273644,9.2278582 9.811605,9.2929966 8.9820669,9.7597827 8.1675915,10.253643 7.3291889,10.704313 7.1959909,10.775912 7.5756316,10.528553 7.692217,10.432242 8.0012404,10.176957 8.0746042,10.075512 8.3481685,9.7769928 9.0250752,8.9572061 9.3894892,8.0197489 9.7118056,7.0209334 9.9010639,6.3867582 10.05132,5.7389705 10.131771,5.081427 c 0.03938,-0.3218442 0.0438,-0.4925907 0.06136,-0.8108475 0.02239,-0.4372518 -0.02529,-0.8731078 -0.06125,-1.3081324 -0.03216,-0.078236 0.0072,-0.2398627 -0.02215,-0.3143122 -0.0043,-0.010956 -0.04513,-0.00211 -0.03456,-0.00731 1.101752,-0.5427734 2.183088,-1.1316505 3.314849,-1.6087043 0.07565,-0.031887 -0.04209,0.1587049 -0.06313,0.2380574 -0.214944,1.1851267 -0.240472,2.3949875 -0.282349,3.5957444 -0.03576,1.6332585 -0.04257,3.2668214 -0.02339,4.9003077 0.01715,0.7024562 0.0313,1.4066832 0.09799,2.1067232 0.04784,0.502282 0.129485,0.999289 0.223792,1.494476 0.07957,0.242361 0.09337,0.586461 0.225644,0.812454 0.01666,0.02846 0.102859,0.04931 0.07413,0.0655 -3.341312,1.881832 -3.301955,2.975368 -3.280792,1.551747 -0.0134,-0.309773 -0.0014,-0.146678 -0.03955,-0.489017 0,0 3.081283,-1.650517 3.081283,-1.650517 l 0,0 c 0.09535,0.298101 0.03963,0.15966 0.161993,0.417363 0.884149,0.993515 0.134645,0.106702 -3.196647,1.868154 -0.0372,0.01967 0.05245,-0.06915 0.0615,-0.11024 0.01693,-0.07683 0.01246,-0.156914 0.01468,-0.235553 0.0053,-0.18825 -0.0023,-0.536866 -0.005,-0.713304 -0.02932,-1.272012 -0.02215,-2.543628 0.02471,-3.815295 0.01884,-1.6255553 0.01289,-3.2511932 -0.02335,-4.8765143 C 10.405431,5.1906865 10.39309,4.1745082 10.225774,3.183603 10.208651,3.0821931 10.183041,2.9824002 10.161674,2.8817989 9.6852396,1.5226471 10.034737,2.7061461 13.416027,0.92615089 c 0.01775,-0.009342 -0.02811,0.0309148 -0.03286,0.0503996 -0.02652,0.10873236 0.01287,0.23187836 -0.01839,0.34078096 -0.04127,0.4932816 -0.125965,0.98034 -0.189086,1.4712833 -0.139427,0.9676163 -0.298311,1.9369925 -0.584882,2.873609 -0.301142,0.9949874 -0.648949,1.9880202 -1.252093,2.8459087 -0.09583,0.1242543 -0.185082,0.253877 -0.2875,0.3727628 C 10.953184,8.99469 10.541673,9.4150645 10.407179,9.4983107 9.3582983,10.147526 8.2878464,10.761297 7.2222787,11.382744 7.1039081,11.451779 6.9808524,11.512916 6.8559986,11.569386 6.7332787,11.624892 6.6055827,11.668663 6.4803747,11.718301 6.166865,11.808963 6.0206488,11.867124 5.6931316,11.898033 5.177101,11.946733 4.6673172,11.83081 4.1960711,11.626049 3.9239862,11.479329 3.7873367,11.421146 3.5427989,11.225476 3.0958212,10.86782 2.7868986,10.377168 2.5497227,9.8632841 2.495918,9.7165522 2.4334567,9.5727107 2.3883086,9.4230884 2.1289431,8.5635435 2.126954,7.656915 2.2230931,6.7720123 2.3454977,5.7556591 2.5214976,4.7413557 2.7898629,3.752845 2.9064222,3.3013939 2.8473919,3.500053 2.9800166,3.0921128 c 0.05979,-0.1839085 0.138891,-0.3693473 0.183477,-0.5580108 0.00733,-0.031029 0.00959,-0.063043 0.014378,-0.094564 0,0 3.4328275,-1.46663472 3.4328275,-1.46663472 z"
       inkscape:connector-curvature="0"
       transform="translate(0,1036.3622)" />
    <path
       style="fill:#224079;fill-opacity:1;fill-rule:nonzero;stroke:none"
       id="path4156"
       d="m 9.11299,10.027054 c -0.5047187,1.097655 -0.041768,0.05511 2.91685,-1.6066526 0.09908,-0.055652 -0.196194,0.1154142 -0.288289,0.1819972 -0.410779,0.2969852 -0.765873,0.6629779 -1.123346,1.0193526 -1.00775,1.0428998 -1.9364236,2.1581998 -2.8614786,3.2739728 -0.8655552,1.02788 -1.7078186,2.074297 -2.5206961,3.144241 -0.4135919,0.542233 -0.7905506,1.10746 -1.1180938,1.705185 -0.026879,0.05193 -0.053758,0.103868 -0.080637,0.155803 0,0 -3.26774385,1.434413 -3.26774385,1.434413 l 0,0 c 0.0430698,-0.05576 0.0861396,-0.111524 0.12920938,-0.167286 0.0322461,-0.04792 0.29223027,-0.434757 0.31202387,-0.461999 0.36154,-0.497591 0.7746456,-0.955386 1.154321,-1.438635 C 3.2623977,16.185979 4.1711083,15.114468 5.0734855,14.037308 5.9468041,12.973807 6.8074678,11.899884 7.6928558,10.84638 8.828669,9.5065682 10.212386,7.8998433 12.135859,7.8308108 c 0,0 -3.022869,2.1962432 -3.022869,2.1962432 z"
       inkscape:connector-curvature="0"
       transform="translate(0,1036.3622)" />
    <path
       style="fill:#224079;fill-opacity:1;fill-rule:nonzero;stroke:none"
       id="path4160"
       d="M 4.3006007,5.0054108 C 5.4163932,3.8011556 7.0945449,3.264319 8.5899865,2.6528278 9.3643444,2.2892209 10.170787,2.0022872 10.958506,1.6701669 11.642347,1.389746 12.327746,1.1122868 13.00064,0.80622059 c 0.243599,-0.0913734 0.474121,-0.21665446 0.718907,-0.30501061 0.07174,-0.025893 0.146633,-0.0422297 0.218778,-0.066958 0.26444,-0.10119984 0.133111,-0.0539058 0.393833,-0.14230903 C 14.606231,0.18977639 14.888404,0.11588681 15.157581,8.7145068e-4 15.379801,-0.12320451 15.621624,-0.21443893 15.87097,-0.26484826 c 0.05473,-0.008946 0.16743,-0.0241733 0.221535,-0.0449428 0.03284,-0.0126052 0.06126,-0.0346794 0.09291,-0.0500227 0.100997,-0.0489617 0.202243,-0.0907262 0.309433,-0.12345417 0.130847,-0.0499312 0.25892,-0.11778121 0.395485,-0.15206178 0.135133,-0.0240723 0.06867,-0.008978 0.199431,-0.0450635 0.03076,-0.0136222 0.06153,-0.0272444 0.09229,-0.0408666 0,0 -2.896474,2.25454142 -2.896474,2.25454142 l 0,0 c -0.03433,0.00875 -0.06867,0.017491 -0.103,0.026236 -0.194022,0.058597 -0.376716,0.1494706 -0.569933,0.2113394 -0.206103,0.090274 -0.41848,0.1414879 -0.636655,0.1925933 -0.233994,0.089213 -0.457359,0.2024924 -0.692969,0.2863488 -0.254482,0.08132 -0.514568,0.144083 -0.766973,0.2323463 -0.415688,0.141056 -0.825982,0.2955021 -1.229504,0.4689047 C 9.6468461,3.2064417 9.0040423,3.4540437 8.365668,3.7127217 7.5528536,4.0364836 6.7375649,4.3546477 5.9520453,4.7419334 5.6402668,4.8876673 5.3221703,5.0254649 5.0195227,5.1899377 4.0723091,5.7046974 0.97585591,8.1150354 7.8166638,3.5664472 c 0.017742,-0.010469 -0.040858,0.0053 -0.061287,0.00795 0,0 -3.4547759,1.431015 -3.4547759,1.431015 z"
       inkscape:connector-curvature="0"
       transform="translate(0,1036.3622)" />
  </g>
</svg>
