<?xml version="1.0" encoding="UTF-8" standalone="no"?>
<!-- Created with Inkscape (http://www.inkscape.org/) -->

<svg
   xmlns:dc="http://purl.org/dc/elements/1.1/"
   xmlns:cc="http://creativecommons.org/ns#"
   xmlns:rdf="http://www.w3.org/1999/02/22-rdf-syntax-ns#"
   xmlns:svg="http://www.w3.org/2000/svg"
   xmlns="http://www.w3.org/2000/svg"
   xmlns:sodipodi="http://sodipodi.sourceforge.net/DTD/sodipodi-0.dtd"
   xmlns:inkscape="http://www.inkscape.org/namespaces/inkscape"
   width="744.09448819"
   height="1052.3622047"
   id="svg2"
   version="1.1"
   inkscape:version="0.48.3.1 r9886"
   sodipodi:docname="logo.svg"
   inkscape:export-filename="/home/pradip/github/myblog/static/img/logo.png"
   inkscape:export-xdpi="95.498436"
   inkscape:export-ydpi="95.498436">
  <defs
     id="defs4">
    <inkscape:path-effect
       fuse_tolerance="0"
       vertical_pattern="false"
       prop_units="false"
       tang_offset="0"
       normal_offset="0"
       spacing="0"
       scale_y_rel="false"
       prop_scale="1"
       copytype="single_stretched"
       pattern="m 464.9249,428.74265 0,10 10,-5 z"
       is_visible="true"
       id="path-effect3855"
       effect="skeletal" />
    <inkscape:path-effect
       is_visible="true"
       id="path-effect3853"
       effect="spiro" />
    <inkscape:path-effect
       fuse_tolerance="0"
       vertical_pattern="false"
       prop_units="false"
       tang_offset="0"
       normal_offset="0"
       spacing="0"
       scale_y_rel="false"
       prop_scale="1"
       copytype="single_stretched"
       pattern="m 407.7024,405.58471 0,10 10,-5 z"
       is_visible="true"
       id="path-effect3851"
       effect="skeletal" />
    <inkscape:path-effect
       is_visible="true"
       id="path-effect3849"
       effect="spiro" />
    <inkscape:path-effect
       fuse_tolerance="0"
       vertical_pattern="false"
       prop_units="false"
       tang_offset="0"
       normal_offset="0"
       spacing="0"
       scale_y_rel="false"
       prop_scale="1"
       copytype="single_stretched"
       pattern="m 494.47438,421.2894 0,10 10,-5 z"
       is_visible="true"
       id="path-effect3814"
       effect="skeletal" />
    <inkscape:path-effect
       is_visible="true"
       id="path-effect3812"
       effect="spiro" />
    <inkscape:path-effect
       effect="skeletal"
       id="path-effect4523"
       is_visible="true"
       pattern="m -41.043891,-4.1043891 0,10 10,-4.99999996 z"
       copytype="single_stretched"
       prop_scale="1"
       scale_y_rel="false"
       spacing="0"
       normal_offset="0"
       tang_offset="0"
       prop_units="false"
       vertical_pattern="false"
       fuse_tolerance="0" />
    <inkscape:path-effect
       effect="spiro"
       id="path-effect4521"
       is_visible="true" />
    <inkscape:path-effect
       effect="skeletal"
       id="path-effect4505"
       is_visible="true"
       pattern="m -1.0260973,8.2087782 0,9.9999998 10,-5 z"
       copytype="single_stretched"
       prop_scale="1"
       scale_y_rel="false"
       spacing="0"
       normal_offset="0"
       tang_offset="0"
       prop_units="false"
       vertical_pattern="false"
       fuse_tolerance="0" />
    <inkscape:path-effect
       effect="spiro"
       id="path-effect4503"
       is_visible="true" />
    <inkscape:path-effect
       effect="skeletal"
       id="path-effect4487"
       is_visible="true"
       pattern="m 0.62018344,7.2507043 0,9.9999997 9.99999956,-5 z"
       copytype="single_stretched"
       prop_scale="1"
       scale_y_rel="false"
       spacing="0"
       normal_offset="0"
       tang_offset="0"
       prop_units="false"
       vertical_pattern="false"
       fuse_tolerance="0" />
    <inkscape:path-effect
       effect="spiro"
       id="path-effect4485"
       is_visible="true" />
    <inkscape:path-effect
       fuse_tolerance="0"
       vertical_pattern="false"
       prop_units="false"
       tang_offset="0"
       normal_offset="0"
       spacing="0"
       scale_y_rel="false"
       prop_scale="1"
       copytype="single_stretched"
       pattern="m 490.6456,430.32133 0,10 10,-5 z"
       is_visible="true"
       id="path-effect4439"
       effect="skeletal" />
    <inkscape:path-effect
       is_visible="true"
       id="path-effect4437"
       effect="spiro" />
    <inkscape:path-effect
       fuse_tolerance="0"
       vertical_pattern="false"
       prop_units="false"
       tang_offset="0"
       normal_offset="0"
       spacing="0"
       scale_y_rel="false"
       prop_scale="1"
       copytype="single_stretched"
       pattern="m 459.0118,451.37787 0,10 10,-5 z"
       is_visible="true"
       id="path-effect4411"
       effect="skeletal" />
    <inkscape:path-effect
       is_visible="true"
       id="path-effect4409"
       effect="spiro" />
    <inkscape:path-effect
       effect="skeletal"
       id="path-effect4377"
       is_visible="true"
       pattern="m -30.765125,18.752754 0,10 10,-5 z"
       copytype="single_stretched"
       prop_scale="1"
       scale_y_rel="false"
       spacing="0"
       normal_offset="0"
       tang_offset="0"
       prop_units="false"
       vertical_pattern="false"
       fuse_tolerance="0" />
    <inkscape:path-effect
       effect="spiro"
       id="path-effect4375"
       is_visible="true" />
    <inkscape:path-effect
       effect="skeletal"
       id="path-effect4371"
       is_visible="true"
       pattern="m -28.571429,22.857143 0,10 10,-5 z"
       copytype="single_stretched"
       prop_scale="1"
       scale_y_rel="false"
       spacing="0"
       normal_offset="0"
       tang_offset="0"
       prop_units="false"
       vertical_pattern="false"
       fuse_tolerance="0" />
    <inkscape:path-effect
       effect="spiro"
       id="path-effect4369"
       is_visible="true" />
    <inkscape:path-effect
       effect="skeletal"
       id="path-effect4365"
       is_visible="true"
       pattern="m -47.40383,8.5714286 0,10.0000004 10,-5 z"
       copytype="single_stretched"
       prop_scale="1"
       scale_y_rel="false"
       spacing="0"
       normal_offset="0"
       tang_offset="0"
       prop_units="false"
       vertical_pattern="false"
       fuse_tolerance="0" />
    <inkscape:path-effect
       effect="spiro"
       id="path-effect4363"
       is_visible="true" />
    <inkscape:path-effect
       effect="skeletal"
       id="path-effect4359"
       is_visible="true"
       pattern="m -60.238942,4.9889853 0,9.9999997 10,-5.0000001 z"
       copytype="single_stretched"
       prop_scale="1"
       scale_y_rel="false"
       spacing="0"
       normal_offset="0"
       tang_offset="0"
       prop_units="false"
       vertical_pattern="false"
       fuse_tolerance="0" />
    <inkscape:path-effect
       effect="spiro"
       id="path-effect4357"
       is_visible="true" />
    <inkscape:path-effect
       effect="skeletal"
       id="path-effect4353"
       is_visible="true"
       pattern="m -61.689543,-25.572784 0,9.999999 10,-5 z"
       copytype="single_stretched"
       prop_scale="1"
       scale_y_rel="false"
       spacing="0"
       normal_offset="0"
       tang_offset="0"
       prop_units="false"
       vertical_pattern="false"
       fuse_tolerance="0" />
    <inkscape:path-effect
       effect="spiro"
       id="path-effect4351"
       is_visible="true" />
    <inkscape:path-effect
       effect="skeletal"
       id="path-effect4347"
       is_visible="true"
       pattern="m -4.4670395,-2.414845 0,10 10,-5 z"
       copytype="single_stretched"
       prop_scale="1"
       scale_y_rel="false"
       spacing="0"
       normal_offset="0"
       tang_offset="0"
       prop_units="false"
       vertical_pattern="false"
       fuse_tolerance="0" />
    <inkscape:path-effect
       effect="spiro"
       id="path-effect4345"
       is_visible="true" />
    <inkscape:path-effect
       effect="spiro"
       id="path-effect4345-8"
       is_visible="true" />
    <inkscape:path-effect
       effect="skeletal"
       id="path-effect4347-7"
       is_visible="true"
       pattern="m -190.0131,-462.24492 0,10 10,-5 z"
       copytype="single_stretched"
       prop_scale="1"
       scale_y_rel="false"
       spacing="0"
       normal_offset="0"
       tang_offset="0"
       prop_units="false"
       vertical_pattern="false"
       fuse_tolerance="0" />
    <inkscape:path-effect
       effect="spiro"
       id="path-effect4351-0"
       is_visible="true" />
    <inkscape:path-effect
       effect="skeletal"
       id="path-effect4353-6"
       is_visible="true"
       pattern="m -322.85714,-469.47824 0,10 10,-5 z"
       copytype="single_stretched"
       prop_scale="1"
       scale_y_rel="false"
       spacing="0"
       normal_offset="0"
       tang_offset="0"
       prop_units="false"
       vertical_pattern="false"
       fuse_tolerance="0" />
    <inkscape:path-effect
       effect="spiro"
       id="path-effect4351-6"
       is_visible="true" />
    <inkscape:path-effect
       effect="skeletal"
       id="path-effect4353-4"
       is_visible="true"
       pattern="m -291.41284,-456.44465 0,10 10,-5 z"
       copytype="single_stretched"
       prop_scale="1"
       scale_y_rel="false"
       spacing="0"
       normal_offset="0"
       tang_offset="0"
       prop_units="false"
       vertical_pattern="false"
       fuse_tolerance="0" />
    <inkscape:path-effect
       effect="spiro"
       id="path-effect4345-3"
       is_visible="true" />
    <inkscape:path-effect
       effect="skeletal"
       id="path-effect4347-4"
       is_visible="true"
       pattern="m -147.16454,-433.28671 0,10 10,-5 z"
       copytype="single_stretched"
       prop_scale="1"
       scale_y_rel="false"
       spacing="0"
       normal_offset="0"
       tang_offset="0"
       prop_units="false"
       vertical_pattern="false"
       fuse_tolerance="0" />
    <inkscape:path-effect
       effect="spiro"
       id="path-effect4351-7"
       is_visible="true" />
    <inkscape:path-effect
       effect="skeletal"
       id="path-effect4353-0"
       is_visible="true"
       pattern="m -204.38705,-456.44465 0,10 10,-5 z"
       copytype="single_stretched"
       prop_scale="1"
       scale_y_rel="false"
       spacing="0"
       normal_offset="0"
       tang_offset="0"
       prop_units="false"
       vertical_pattern="false"
       fuse_tolerance="0" />
  </defs>
  <sodipodi:namedview
     id="base"
     pagecolor="#ffffff"
     bordercolor="#666666"
     borderopacity="1.0"
     inkscape:pageopacity="0.0"
     inkscape:pageshadow="2"
     inkscape:zoom="0.48728324"
     inkscape:cx="310.94176"
     inkscape:cy="300.1996"
     inkscape:document-units="px"
     inkscape:current-layer="layer1"
     showgrid="true"
     inkscape:window-width="1366"
     inkscape:window-height="713"
     inkscape:window-x="0"
     inkscape:window-y="28"
     inkscape:window-maximized="1">
    <inkscape:grid
       type="xygrid"
       id="grid3786" />
  </sodipodi:namedview>
  <metadata
     id="metadata7">
    <rdf:RDF>
      <cc:Work
         rdf:about="">
        <dc:format>image/svg+xml</dc:format>
        <dc:type
           rdf:resource="http://purl.org/dc/dcmitype/StillImage" />
        <dc:title></dc:title>
      </cc:Work>
    </rdf:RDF>
  </metadata>
  <g
     inkscape:label="Layer 1"
     inkscape:groupmode="layer"
     id="layer1">
    <path
       style="fill:#008080;fill-rule:evenodd;stroke:#ffffff;stroke-width:11;stroke-linejoin:bevel;stroke-miterlimit:4;stroke-opacity:1;stroke-dasharray:none;fill-opacity:1"
       d="m 273.55938,436.37186 -9.99986,0.0535 c 1.49938,58.48577 -2.8749,117.24342 -13.08232,175.09298 -4.13474,23.43325 -9.22392,46.71793 -15.2539,69.77674 6.9546,-22.797 12.98964,-45.89488 18.08226,-69.21856 12.57223,-57.57963 19.38432,-116.53668 20.25382,-175.7047 z"
       id="path4349"
       inkscape:path-effect="#path-effect4351;#path-effect4353"
       inkscape:original-d="m 268.55945,436.39863 c 5.50173,61.58532 -16.66807,116.81486 -16.66807,175.39884 0,8.91435 5.85841,114.22354 -16.66808,69.49765"
       inkscape:connector-curvature="0" />
    <path
       style="fill:#800000;fill-rule:evenodd;stroke:#ffffff;stroke-width:11;stroke-miterlimit:4;stroke-dasharray:none;stroke-opacity:1;stroke-linejoin:bevel;fill-opacity:1"
       d="m 186.39913,462.36769 -4.73532,-8.80776 c -10.72134,5.9963 -19.60935,14.9789 -25.46463,25.6468 -5.84903,10.67146 -8.58988,22.89389 -7.89628,34.92813 0.69979,12.03397 4.82741,23.74311 11.73654,33.48014 0,10e-6 0,10e-6 0,10e-6 6.91343,9.73408 16.54,17.39799 27.45778,21.9385 11.12225,4.58427 23.06895,5.93427 34.71665,6.22059 13.25161,0.40594 27.27968,-0.73247 38.98372,-7.47631 10.81106,-6.28762 18.60587,-17.28948 20.98465,-29.3711 2.37329,-12.08279 -0.71061,-25.02702 -8.10492,-34.63111 7.04991,9.85966 9.5641,22.74642 6.84702,34.36091 -2.71159,11.61566 -10.62897,21.86717 -20.98107,27.39454 -11.19893,6.04247 -24.60171,6.50742 -37.55522,5.76135 -1e-5,0 -1e-5,0 -2e-5,0 -11.40106,-0.72693 -22.78926,-2.38614 -32.81771,-7.01707 -9.84944,-4.50762 -18.36919,-11.83783 -24.2568,-20.79278 0,0 0,-10e-6 0,-10e-6 -5.89192,-8.952 -9.18868,-19.58098 -9.42197,-30.18051 -0.23949,-10.59928 2.58016,-21.25027 7.9504,-30.2581 5.36399,-9.01139 13.32652,-16.4657 22.55718,-21.19622 z"
       id="path4343"
       inkscape:path-effect="#path-effect4345;#path-effect4347"
       inkscape:original-d="m 184.03147,457.96381 c -0.014,19.18367 -11.7156,97.28963 4.5023,109.2106 8.69086,6.38824 23.26334,6.61883 33.76718,6.61883 13.8762,0 26.09552,2.32965 38.26948,-6.61883 15.24902,-11.20879 7.47365,-45.13991 13.50689,-62.87883"
       inkscape:connector-curvature="0" />
    <path
       style="fill:#008080;fill-rule:evenodd;stroke:#ffffff;stroke-width:11;stroke-linecap:round;stroke-linejoin:bevel;stroke-miterlimit:4;stroke-opacity:1;stroke-dasharray:none;fill-opacity:1"
       d="m 250.26735,603.51848 2.49562,-9.6836 c -7.98857,-1.83446 -16.12661,-2.91439 -24.27631,-3.22926 0,0 0,0 -1e-5,0 -27.22462,-1.04688 -54.41684,6.66122 -76.72894,21.46758 0,0 -1e-5,0 -1e-5,0 -22.30919,14.81104 -39.58318,36.61683 -48.85649,61.23995 10.61522,-24.07508 28.87307,-44.47072 51.16235,-57.55315 0,0 0,0 1e-5,0 22.28635,-13.0871 48.5897,-18.85846 73.85609,-16.47588 7.5789,0.71275 15.07286,2.1352 22.34769,4.23436 z"
       id="path4355"
       inkscape:path-effect="#path-effect4357;#path-effect4359"
       inkscape:original-d="m 251.51516,598.67668 c -5.00841,9.50005 -16.30761,-8.21691 -23.312,-3.73181 -41.6321,26.65814 -80.55225,59.26532 -125.30195,78.36828"
       inkscape:connector-curvature="0" />
    <path
       style="fill:#008080;fill-rule:evenodd;stroke:#ffffff;stroke-width:11;stroke-linejoin:bevel;stroke-miterlimit:4;stroke-opacity:1;stroke-dasharray:none;fill-opacity:1"
       d="M 345.5912,471.26648 335.64638,470.2174 320.6171,660.35027 z"
       id="path4361"
       inkscape:path-effect="#path-effect4363;#path-effect4365"
       inkscape:original-d="m 340.61879,470.74194 c 3.79273,28.89618 -35.09738,173.40818 -20.00169,189.60833"
       inkscape:connector-curvature="0" />
    <path
       style="fill:#008080;fill-rule:evenodd;stroke:#ffffff;stroke-opacity:1;stroke-width:11;stroke-miterlimit:4;stroke-dasharray:none;stroke-linejoin:bevel;fill-opacity:1"
       d="m 363.77471,468.01416 9.09446,-4.1582 c -4.64487,-9.86731 -10.59875,-19.09117 -17.65365,-27.36532 -9.83081,-11.488 -21.25562,-20.73497 -30.83882,-31.13759 -9.46316,-10.43887 -17.66175,-22.4688 -19.12076,-35.77839 -1.064,-8.71002 0.73337,-17.83667 4.78511,-25.78783 0,0 1e-5,-1e-5 1e-5,-1e-5 4.05298,-7.96248 10.41433,-14.80526 17.98653,-19.79444 15.10553,-10.01849 35.00046,-12.18998 53.08501,-8.05453 15.71074,3.62186 30.42386,11.87603 41.7617,23.49642 0,0 10e-6,0 10e-6,0 11.34005,11.61828 19.31,26.60967 22.59326,42.62409 3.28526,16.01403 1.88113,33.04248 -4.05042,48.39646 -5.9306,15.35437 -16.37973,29.00927 -29.75822,38.78966 13.60121,-9.46821 24.45543,-22.94229 30.8265,-38.36263 6.37011,-15.42072 8.23326,-32.73087 5.24142,-49.25928 -2.99385,-16.52803 -10.8287,-32.19643 -22.35412,-44.56947 0,-10e-6 -10e-6,-10e-6 -10e-6,-2e-5 -11.52763,-12.37092 -26.67985,-21.37581 -43.17252,-25.58673 -19.02792,-4.89135 -40.31004,-3.04464 -57.36926,7.53414 -8.518,5.31447 -15.7739,12.77177 -20.62192,21.71586 -4.84864,8.95421 -7.14253,19.34735 -6.1657,29.63321 1.64824,15.61247 10.19224,29.35349 20.1918,40.53274 9.88417,11.22068 21.05748,20.68611 29.85706,31.54658 6.33953,7.7934 11.62912,16.42848 15.68253,25.58528 z"
       id="path4373"
       inkscape:path-effect="#path-effect4375;#path-effect4377"
       inkscape:original-d="m 368.32194,465.93506 c -9.34627,-6.89213 -9.55054,-19.40943 -16.66809,-26.4753 -22.83953,-22.67371 -36.97285,-43.62414 -50.00422,-69.49765 -19.33099,-38.38128 50.08331,-71.11311 80.00677,-56.26001 33.98761,16.87043 30.00253,120.5843 30.00253,155.54238"
       inkscape:connector-curvature="0" />
    <path
       style="fill:#008080;fill-opacity:1;fill-rule:evenodd;stroke:#ffffff;stroke-width:11;stroke-linejoin:bevel;stroke-miterlimit:4;stroke-opacity:1;stroke-dasharray:none"
       d="m 426.05284,496.02805 -2.42672,-9.70108 c -15.01603,3.93824 -28.84731,11.66137 -40.21826,21.98997 -11.38066,10.31766 -20.34968,23.28616 -25.6637,37.69216 -2.93558,7.73299 -4.76474,16.4487 -3.2783,25.22658 1.14053,6.21532 4.01107,11.96945 8.06336,16.6549 0,0 10e-6,10e-6 10e-6,10e-6 4.04855,4.67743 9.16361,8.28232 14.74864,10.66125 11.18351,4.71037 23.7221,4.653 35.01121,1.42977 13.17815,-3.73893 24.8904,-11.3778 34.35492,-20.92848 2.78419,-2.77884 5.47835,-5.87335 7.52213,-9.51646 2.06397,-3.65339 3.29158,-7.93774 2.98392,-12.3302 0,0 0,-10e-6 0,-2e-5 -0.42441,-5.07486 -2.9893,-9.7526 -6.81096,-12.93556 -3.8154,-3.16519 -8.66874,-4.82656 -13.51637,-4.88874 -4.83668,-0.0582 -9.57099,1.38021 -13.60031,3.87207 -4.02301,2.48889 -7.34287,5.94179 -9.82832,9.86168 -5.77864,9.19997 -7.06799,20.29528 -6.60011,30.76662 0.85894,20.85371 7.88714,41.33514 19.90473,58.23269 12.01864,16.89682 28.98062,30.1457 48.145,37.69878 -18.9912,-7.97853 -35.52826,-21.54902 -47.01325,-38.48501 -11.48603,-16.93526 -17.90077,-37.20615 -18.28164,-57.5294 -0.15405,-10.18456 1.23819,-20.68424 6.73435,-28.80282 2.32563,-3.47014 5.33669,-6.47789 8.869,-8.53611 3.52536,-2.05486 7.59245,-3.20293 11.57043,-3.04244 3.96568,0.15646 7.91256,1.59451 10.8057,4.14927 0,0 10e-6,10e-6 10e-6,10e-6 2.88522,2.53556 4.82324,6.23949 5.00568,9.95754 0.2192,3.24156 -0.89593,6.59949 -2.61311,9.5988 -1.73797,3.01066 -4.21333,5.67654 -6.88254,8.26748 -9.17065,8.79874 -20.24742,15.70404 -32.31738,18.78446 -10.29572,2.6067 -21.43797,2.47692 -30.72096,-1.81359 -4.65064,-2.12257 -8.85221,-5.21243 -12.01976,-9.07667 -10e-6,0 -10e-6,-1e-5 -10e-6,-1e-5 -3.16344,-3.85578 -5.36949,-8.50816 -6.11173,-13.31438 -1.17244,-6.78688 0.71246,-14.0789 3.38892,-21.1052 5.10847,-13.00447 13.59566,-24.64896 24.13992,-33.8059 10.55397,-9.14601 23.22299,-15.85384 36.6555,-19.03197 z"
       id="path4483"
       inkscape:path-effect="#path-effect4485;#path-effect4487"
       inkscape:original-d="m 424.83948,491.17751 c -9.83392,29.03755 -48.61293,34.33173 -63.33869,56.26 -4.80766,7.15913 -3.33361,14.93986 -3.33361,23.16589 0,32.30721 23.93011,32.31414 53.33784,26.47529 12.01878,-2.3863 24.28828,-10.8743 33.33615,-19.85647 5.27091,-5.23264 2.54665,-19.85648 10.00085,-19.85648 10.06817,0 -23.84199,-8.65743 -40.00339,-3.30941 -10.2427,3.38945 -6.66723,21.97426 -6.66723,29.78472 0,40.21049 40.19176,69.68465 66.67231,95.97294"
       inkscape:connector-curvature="0" />
    <path
       style="fill:#008080;fill-rule:evenodd;stroke:#ffffff;stroke-width:11;stroke-miterlimit:4;stroke-dasharray:none;stroke-opacity:1;stroke-linejoin:bevel;fill-opacity:1"
       d="m 424.68214,437.42649 -9.98734,-0.50302 1.66005,66.43976 z"
       id="path4501"
       inkscape:path-effect="#path-effect4503;#path-effect4505"
       inkscape:original-d="m 419.68847,437.17498 c -5.10869,21.6113 -3.33362,44.09253 -3.33362,66.18825"
       inkscape:connector-curvature="0" />
    <path
       style="fill:#008080;fill-rule:evenodd;stroke:#ffffff;stroke-width:11;stroke-linejoin:bevel;stroke-miterlimit:4;stroke-opacity:1;stroke-dasharray:none"
       d="m 90.932419,459.75929 0,10 569.874231,-5 z"
       id="path4519"
       inkscape:path-effect="#path-effect4521;#path-effect4523"
       inkscape:original-d="m 90.932419,464.75929 c 189.958071,0 379.916151,0 569.874231,0"
       inkscape:connector-curvature="0" />
    <path
       style="fill:#008080;fill-opacity:1;fill-rule:evenodd;stroke:#ffffff;stroke-width:11;stroke-linejoin:bevel;stroke-miterlimit:4;stroke-opacity:1;stroke-dasharray:none"
       d="m 600.25382,436.65749 -9.99986,0.0535 c 1.49938,58.48577 -2.87491,117.24342 -13.08232,175.09298 -4.13474,23.43325 -9.22392,46.71793 -15.2539,69.77674 6.95459,-22.797 12.98964,-45.89488 18.08226,-69.21856 12.57223,-57.57963 19.38432,-116.53668 20.25382,-175.7047 z"
       id="path4349-3"
       inkscape:path-effect="#path-effect3849;#path-effect3851"
       inkscape:original-d="m 595.25389,436.68426 c 5.50173,61.58532 -16.66807,116.81486 -16.66807,175.39884 0,8.91435 5.85841,114.22354 -16.66808,69.49765"
       inkscape:connector-curvature="0" />
    <path
       style="fill:#800000;fill-opacity:1;fill-rule:evenodd;stroke:#ffffff;stroke-width:11;stroke-linejoin:bevel;stroke-miterlimit:4;stroke-opacity:1;stroke-dasharray:none"
       d="m 513.09357,462.65332 -4.73532,-8.80776 c -10.72134,5.9963 -19.60935,14.9789 -25.46463,25.6468 -5.84903,10.67146 -8.58988,22.89389 -7.89628,34.92813 0.69979,12.03397 4.82741,23.74311 11.73654,33.48014 6.91343,9.73408 16.54,17.398 27.45778,21.93851 11.12225,4.58427 23.06895,5.93427 34.71665,6.22059 13.25161,0.40594 27.27968,-0.73247 38.98372,-7.47631 10.81106,-6.28762 18.60587,-17.28948 20.98465,-29.3711 2.37329,-12.08279 -0.71061,-25.02702 -8.10492,-34.63111 7.04991,9.85966 9.5641,22.74642 6.84702,34.36091 -2.71159,11.61566 -10.62897,21.86717 -20.98107,27.39454 -11.19893,6.04247 -24.60172,6.50742 -37.55524,5.76135 -11.40106,-0.72693 -22.78926,-2.38614 -32.81771,-7.01707 -9.84944,-4.50762 -18.36919,-11.83783 -24.2568,-20.79278 0,0 0,-10e-6 0,-10e-6 -5.89192,-8.952 -9.18868,-19.58098 -9.42197,-30.18051 -0.23949,-10.59928 2.58016,-21.25027 7.9504,-30.2581 5.36399,-9.01139 13.32652,-16.4657 22.55718,-21.19622 z"
       id="path4343-3"
       inkscape:path-effect="#path-effect3853;#path-effect3855"
       inkscape:original-d="m 510.72591,458.24944 c -0.014,19.18367 -11.7156,97.28963 4.5023,109.2106 8.69086,6.38824 23.26334,6.61883 33.76718,6.61883 13.8762,0 26.09552,2.32965 38.26948,-6.61883 15.24902,-11.20879 7.47365,-45.13991 13.50689,-62.87883"
       inkscape:connector-curvature="0" />
  </g>
</svg>
